<svg width="225" height="58" viewBox="0 0 225 58" fill="none" xmlns="http://www.w3.org/2000/svg">
<rect width="225" height="58" rx="29" fill="url(#paint0_linear_4_3)"/>
<g filter="url(#filter0_bdd_4_3)">
<path d="M40.38 40.61C40.18 40.61 39.92 40.58 39.6 40.52C39.28 40.46 38.95 40.34 38.61 40.16C38.29 40 38.02 39.74 37.8 39.38C37.58 39.02 37.47 38.54 37.47 37.94C37.47 37.44 37.57 36.79 37.77 35.99C37.97 35.17 38.31 33.98 38.79 32.42C39.15 31.24 39.5 30.08 39.84 28.94C40.2 27.78 40.49 26.58 40.71 25.34C40.95 24.1 41.07 22.78 41.07 21.38C41.07 20.56 41.02 19.87 40.92 19.31C40.82 18.75 40.63 18.33 40.35 18.05C40.09 17.75 39.72 17.6 39.24 17.6C38.76 17.6 38.34 17.73 37.98 17.99C37.62 18.25 37.32 18.6 37.08 19.04C36.84 19.46 36.66 19.93 36.54 20.45C36.42 20.97 36.36 21.49 36.36 22.01C36.36 22.89 36.51 23.62 36.81 24.2C35.83 24.2 35.12 23.97 34.68 23.51C34.24 23.05 34.02 22.48 34.02 21.8C34.02 21.2 34.17 20.58 34.47 19.94C34.77 19.3 35.18 18.72 35.7 18.2C36.24 17.66 36.86 17.23 37.56 16.91C38.26 16.57 39.01 16.4 39.81 16.4C41.17 16.4 42.2 16.9 42.9 17.9C43.62 18.9 43.98 20.32 43.98 22.16C43.98 23.54 43.79 24.98 43.41 26.48C43.05 27.96 42.59 29.58 42.03 31.34C41.83 31.98 41.59 32.69 41.31 33.47C41.05 34.23 40.81 35.02 40.59 35.84C40.39 36.64 40.29 37.44 40.29 38.24C40.29 38.62 40.33 38.88 40.41 39.02C40.51 39.18 40.69 39.26 40.95 39.26C41.49 39.26 42.06 39.03 42.66 38.57C43.28 38.11 43.9 37.49 44.52 36.71C45.14 35.93 45.73 35.06 46.29 34.1C46.87 33.14 47.4 32.16 47.88 31.16C48.36 30.14 48.76 29.18 49.08 28.28C49.4 27.36 49.61 26.56 49.71 25.88C50.47 25.88 51.06 26.09 51.48 26.51C51.9 26.93 52.11 27.33 52.11 27.71C52.11 27.91 52.02 28.25 51.84 28.73C51.68 29.21 51.4 29.92 51 30.86C50.68 31.62 50.35 32.43 50.01 33.29C49.67 34.13 49.38 34.97 49.14 35.81C48.92 36.63 48.81 37.4 48.81 38.12C48.81 38.52 48.86 38.81 48.96 38.99C49.08 39.17 49.29 39.26 49.59 39.26C50.15 39.26 50.79 38.98 51.51 38.42C52.25 37.88 53.01 37.14 53.79 36.2C54.57 35.24 55.33 34.17 56.07 32.99C56.81 31.79 57.48 30.55 58.08 29.27C58.68 27.99 59.15 26.73 59.49 25.49C59.85 24.25 60.03 23.12 60.03 22.1C60.03 21 59.83 20.22 59.43 19.76C59.05 19.3 58.57 18.97 57.99 18.77C58.35 18.19 58.73 17.77 59.13 17.51C59.55 17.23 59.92 17.09 60.24 17.09C60.7 17.09 61.17 17.39 61.65 17.99C62.15 18.57 62.4 19.49 62.4 20.75C62.4 21.81 62.19 23.03 61.77 24.41C61.37 25.79 60.81 27.23 60.09 28.73C59.39 30.21 58.58 31.66 57.66 33.08C56.76 34.48 55.79 35.75 54.75 36.89C53.73 38.03 52.7 38.93 51.66 39.59C50.62 40.27 49.63 40.61 48.69 40.61C48.17 40.61 47.7 40.5 47.28 40.28C46.88 40.08 46.56 39.78 46.32 39.38C46.1 39 45.99 38.55 45.99 38.03C45.99 37.79 46.02 37.54 46.08 37.28C46.14 37.02 46.21 36.76 46.29 36.5C45.31 37.74 44.32 38.73 43.32 39.47C42.34 40.23 41.36 40.61 40.38 40.61ZM62.512 39.41C61.852 39.41 61.282 39.19 60.802 38.75C60.302 38.31 60.052 37.65 60.052 36.77C60.052 36.07 60.212 35.31 60.532 34.49C60.852 33.67 61.292 32.86 61.852 32.06C62.412 31.26 63.052 30.54 63.772 29.9C64.492 29.24 65.262 28.71 66.082 28.31C66.902 27.91 67.722 27.71 68.542 27.71C69.402 27.71 70.132 27.93 70.732 28.37C71.332 28.81 71.632 29.39 71.632 30.11C71.632 30.65 71.442 31.04 71.062 31.28C70.682 31.52 70.232 31.59 69.712 31.49C69.752 31.31 69.782 31.13 69.802 30.95C69.842 30.77 69.862 30.58 69.862 30.38C69.862 29.98 69.782 29.62 69.622 29.3C69.462 28.98 69.122 28.82 68.602 28.82C68.042 28.82 67.472 29.01 66.892 29.39C66.312 29.77 65.752 30.27 65.212 30.89C64.692 31.49 64.222 32.16 63.802 32.9C63.382 33.62 63.052 34.33 62.812 35.03C62.572 35.73 62.452 36.36 62.452 36.92C62.452 37.56 62.682 37.88 63.142 37.88C63.602 37.88 64.112 37.66 64.672 37.22C65.232 36.76 65.792 36.19 66.352 35.51C66.932 34.83 67.482 34.14 68.002 33.44C68.522 32.72 68.972 32.11 69.352 31.61C69.412 31.51 69.492 31.46 69.592 31.46C69.672 31.48 69.822 31.53 70.042 31.61C70.282 31.67 70.502 31.77 70.702 31.91C70.902 32.05 71.002 32.23 71.002 32.45C71.002 32.65 70.912 32.91 70.732 33.23C70.572 33.53 70.372 33.87 70.132 34.25C69.912 34.61 69.712 34.98 69.532 35.36C69.372 35.72 69.292 36.07 69.292 36.41C69.292 36.67 69.362 36.92 69.502 37.16C69.642 37.38 69.872 37.49 70.192 37.49C70.672 37.49 71.342 37.14 72.202 36.44C73.082 35.72 73.972 34.51 74.872 32.81L75.442 33.38C74.962 34.46 74.382 35.42 73.702 36.26C73.042 37.08 72.342 37.72 71.602 38.18C70.862 38.66 70.112 38.9 69.352 38.9C68.532 38.9 67.922 38.64 67.522 38.12C67.122 37.6 66.902 37.04 66.862 36.44C66.862 36.4 66.862 36.37 66.862 36.35C66.862 36.33 66.862 36.31 66.862 36.29C66.062 37.25 65.322 38.01 64.642 38.57C63.982 39.13 63.272 39.41 62.512 39.41ZM79.7121 38.78C78.9721 38.78 78.3721 38.58 77.9121 38.18C77.4521 37.8 77.2221 37.28 77.2221 36.62C77.2221 36.06 77.3621 35.46 77.6421 34.82C77.9221 34.18 78.2021 33.55 78.4821 32.93C78.7821 32.31 78.9321 31.76 78.9321 31.28C78.9321 30.82 78.7821 30.44 78.4821 30.14C78.1821 29.82 77.8321 29.56 77.4321 29.36C76.9921 30.46 76.4921 31.53 75.9321 32.57C75.3921 33.59 74.9521 34.39 74.6121 34.97L74.1621 34.1C74.4421 33.58 74.8121 32.84 75.2721 31.88C75.7321 30.92 76.1721 29.85 76.5921 28.67C76.3921 28.47 76.2921 28.2 76.2921 27.86C76.2921 27.34 76.4521 26.85 76.7721 26.39C77.0921 25.93 77.4021 25.7 77.7021 25.7C77.9421 25.7 78.1121 25.84 78.2121 26.12C78.3321 26.38 78.3921 26.56 78.3921 26.66C78.3921 26.76 78.3421 26.94 78.2421 27.2C78.1621 27.46 78.1021 27.65 78.0621 27.77C78.0821 27.99 78.2521 28.21 78.5721 28.43C78.9121 28.63 79.2921 28.87 79.7121 29.15C80.1321 29.43 80.5021 29.78 80.8221 30.2C81.1421 30.62 81.3021 31.15 81.3021 31.79C81.3021 32.37 81.1721 32.96 80.9121 33.56C80.6521 34.16 80.3921 34.72 80.1321 35.24C79.8721 35.76 79.7421 36.21 79.7421 36.59C79.7421 36.87 79.8121 37.06 79.9521 37.16C80.1121 37.24 80.2921 37.28 80.4921 37.28C80.9721 37.28 81.4721 37.14 81.9921 36.86C82.5121 36.56 83.0221 36.18 83.5221 35.72C84.0221 35.26 84.4621 34.78 84.8421 34.28C85.2221 33.76 85.5121 33.29 85.7121 32.87L86.4321 33.41C86.0521 34.27 85.5021 35.12 84.7821 35.96C84.0621 36.78 83.2621 37.46 82.3821 38C81.5021 38.52 80.6121 38.78 79.7121 38.78ZM86.7405 39.41C86.0805 39.41 85.5105 39.19 85.0305 38.75C84.5305 38.31 84.2805 37.65 84.2805 36.77C84.2805 36.07 84.4405 35.31 84.7605 34.49C85.0805 33.67 85.5205 32.86 86.0805 32.06C86.6405 31.26 87.2805 30.54 88.0005 29.9C88.7205 29.24 89.4905 28.71 90.3105 28.31C91.1305 27.91 91.9505 27.71 92.7705 27.71C93.6305 27.71 94.3605 27.93 94.9605 28.37C95.5605 28.81 95.8605 29.39 95.8605 30.11C95.8605 30.65 95.6705 31.04 95.2905 31.28C94.9105 31.52 94.4605 31.59 93.9405 31.49C93.9805 31.31 94.0105 31.13 94.0305 30.95C94.0705 30.77 94.0905 30.58 94.0905 30.38C94.0905 29.98 94.0105 29.62 93.8505 29.3C93.6905 28.98 93.3505 28.82 92.8305 28.82C92.2705 28.82 91.7005 29.01 91.1205 29.39C90.5405 29.77 89.9805 30.27 89.4405 30.89C88.9205 31.49 88.4505 32.16 88.0305 32.9C87.6105 33.62 87.2805 34.33 87.0405 35.03C86.8005 35.73 86.6805 36.36 86.6805 36.92C86.6805 37.56 86.9105 37.88 87.3705 37.88C87.8305 37.88 88.3405 37.66 88.9005 37.22C89.4605 36.76 90.0205 36.19 90.5805 35.51C91.1605 34.83 91.7105 34.14 92.2305 33.44C92.7505 32.72 93.2005 32.11 93.5805 31.61C93.6405 31.51 93.7205 31.46 93.8205 31.46C93.9005 31.48 94.0505 31.53 94.2705 31.61C94.5105 31.67 94.7305 31.77 94.9305 31.91C95.1305 32.05 95.2305 32.23 95.2305 32.45C95.2305 32.65 95.1405 32.91 94.9605 33.23C94.8005 33.53 94.6005 33.87 94.3605 34.25C94.1405 34.61 93.9405 34.98 93.7605 35.36C93.6005 35.72 93.5205 36.07 93.5205 36.41C93.5205 36.67 93.5905 36.92 93.7305 37.16C93.8705 37.38 94.1005 37.49 94.4205 37.49C94.9005 37.49 95.5705 37.14 96.4305 36.44C97.3105 35.72 98.2005 34.51 99.1005 32.81L99.6705 33.38C99.1905 34.46 98.6105 35.42 97.9305 36.26C97.2705 37.08 96.5705 37.72 95.8305 38.18C95.0905 38.66 94.3405 38.9 93.5805 38.9C92.7605 38.9 92.1505 38.64 91.7505 38.12C91.3505 37.6 91.1305 37.04 91.0905 36.44C91.0905 36.4 91.0905 36.37 91.0905 36.35C91.0905 36.33 91.0905 36.31 91.0905 36.29C90.2905 37.25 89.5505 38.01 88.8705 38.57C88.2105 39.13 87.5005 39.41 86.7405 39.41ZM103.701 20.87C103.461 20.73 103.231 20.55 103.011 20.33C102.791 20.11 102.681 19.88 102.681 19.64C102.681 19.32 102.831 18.98 103.131 18.62C103.431 18.24 103.751 17.86 104.091 17.48C104.431 17.08 104.661 16.7 104.781 16.34C105.061 16.34 105.321 16.45 105.561 16.67C105.801 16.87 105.921 17.11 105.921 17.39C105.921 17.67 105.781 18.02 105.501 18.44C105.241 18.84 104.941 19.25 104.601 19.67C104.261 20.09 103.961 20.49 103.701 20.87ZM104.7 39.41C104.04 39.41 103.47 39.19 102.99 38.75C102.49 38.31 102.24 37.65 102.24 36.77C102.24 36.07 102.4 35.31 102.72 34.49C103.04 33.67 103.48 32.86 104.04 32.06C104.6 31.26 105.24 30.54 105.96 29.9C106.68 29.24 107.45 28.71 108.27 28.31C109.09 27.91 109.91 27.71 110.73 27.71C111.59 27.71 112.32 27.93 112.92 28.37C113.52 28.81 113.82 29.39 113.82 30.11C113.82 30.65 113.63 31.04 113.25 31.28C112.87 31.52 112.42 31.59 111.9 31.49C111.94 31.31 111.97 31.13 111.99 30.95C112.03 30.77 112.05 30.58 112.05 30.38C112.05 29.98 111.97 29.62 111.81 29.3C111.65 28.98 111.31 28.82 110.79 28.82C110.23 28.82 109.66 29.01 109.08 29.39C108.5 29.77 107.94 30.27 107.4 30.89C106.88 31.49 106.41 32.16 105.99 32.9C105.57 33.62 105.24 34.33 105 35.03C104.76 35.73 104.64 36.36 104.64 36.92C104.64 37.56 104.87 37.88 105.33 37.88C105.79 37.88 106.3 37.66 106.86 37.22C107.42 36.76 107.98 36.19 108.54 35.51C109.12 34.83 109.67 34.14 110.19 33.44C110.71 32.72 111.16 32.11 111.54 31.61C111.6 31.51 111.68 31.46 111.78 31.46C111.86 31.48 112.01 31.53 112.23 31.61C112.47 31.67 112.69 31.77 112.89 31.91C113.09 32.05 113.19 32.23 113.19 32.45C113.19 32.65 113.1 32.91 112.92 33.23C112.76 33.53 112.56 33.87 112.32 34.25C112.1 34.61 111.9 34.98 111.72 35.36C111.56 35.72 111.48 36.07 111.48 36.41C111.48 36.67 111.55 36.92 111.69 37.16C111.83 37.38 112.06 37.49 112.38 37.49C112.86 37.49 113.53 37.14 114.39 36.44C115.27 35.72 116.16 34.51 117.06 32.81L117.63 33.38C117.15 34.46 116.57 35.42 115.89 36.26C115.23 37.08 114.53 37.72 113.79 38.18C113.05 38.66 112.3 38.9 111.54 38.9C110.72 38.9 110.11 38.64 109.71 38.12C109.31 37.6 109.09 37.04 109.05 36.44C109.05 36.4 109.05 36.37 109.05 36.35C109.05 36.33 109.05 36.31 109.05 36.29C108.25 37.25 107.51 38.01 106.83 38.57C106.17 39.13 105.46 39.41 104.7 39.41Z" fill="url(#paint1_angular_4_3)"/>
<path d="M122.298 40.3011C121.429 40.3011 120.661 40.1818 119.993 39.9432C119.325 39.7074 118.764 39.3594 118.31 38.8991C117.855 38.4389 117.512 37.875 117.279 37.2074C117.046 36.5398 116.929 35.7756 116.929 34.9148C116.929 34.0824 117.047 33.3381 117.283 32.6818C117.521 32.0256 117.867 31.4688 118.318 31.0114C118.773 30.5511 119.324 30.2003 119.972 29.9588C120.622 29.7173 121.358 29.5966 122.179 29.5966C122.977 29.5966 123.676 29.7273 124.276 29.9886C124.878 30.2472 125.381 30.598 125.784 31.0412C126.191 31.4815 126.494 31.9773 126.696 32.5284C126.901 33.0795 127.003 33.6477 127.003 34.233C127.003 34.6449 126.983 35.0625 126.943 35.4858C126.904 35.9091 126.82 36.2983 126.692 36.6534C126.564 37.0057 126.367 37.2898 126.1 37.5057C125.835 37.7216 125.477 37.8295 125.026 37.8295C124.827 37.8295 124.608 37.7983 124.369 37.7358C124.131 37.6733 123.919 37.5696 123.735 37.4247C123.55 37.2798 123.441 37.0852 123.406 36.8409H123.355C123.287 37.0057 123.182 37.1619 123.04 37.3097C122.901 37.4574 122.718 37.5753 122.49 37.6634C122.266 37.7514 121.992 37.7898 121.668 37.7784C121.298 37.7642 120.973 37.6818 120.692 37.5312C120.411 37.3778 120.175 37.1705 119.985 36.9091C119.797 36.6449 119.655 36.3395 119.558 35.9929C119.465 35.6435 119.418 35.267 119.418 34.8636C119.418 34.4801 119.475 34.1293 119.588 33.8111C119.702 33.4929 119.86 33.2145 120.061 32.9759C120.266 32.7372 120.504 32.5469 120.777 32.4048C121.053 32.2599 121.35 32.1705 121.668 32.1364C121.952 32.108 122.21 32.1207 122.443 32.1747C122.676 32.2259 122.868 32.304 123.019 32.4091C123.169 32.5114 123.264 32.625 123.304 32.75H123.355V32.2727H124.259V36.125C124.259 36.3636 124.325 36.5739 124.459 36.7557C124.593 36.9375 124.787 37.0284 125.043 37.0284C125.333 37.0284 125.554 36.929 125.708 36.7301C125.864 36.5312 125.97 36.2244 126.027 35.8097C126.087 35.3949 126.117 34.8636 126.117 34.2159C126.117 33.8352 126.064 33.4602 125.959 33.0909C125.857 32.7187 125.7 32.3707 125.49 32.0469C125.283 31.723 125.02 31.4375 124.702 31.1903C124.384 30.9432 124.01 30.75 123.581 30.6108C123.155 30.4687 122.671 30.3977 122.128 30.3977C121.46 30.3977 120.862 30.5014 120.334 30.7088C119.808 30.9134 119.361 31.2131 118.992 31.608C118.625 32 118.345 32.4773 118.152 33.0398C117.962 33.5994 117.867 34.2358 117.867 34.9489C117.867 35.6733 117.962 36.3168 118.152 36.8793C118.345 37.4418 118.629 37.9162 119.004 38.3026C119.382 38.6889 119.85 38.9815 120.406 39.1804C120.963 39.3821 121.605 39.483 122.333 39.483C122.645 39.483 122.953 39.4531 123.257 39.3935C123.561 39.3338 123.83 39.2685 124.063 39.1974C124.296 39.1264 124.463 39.0739 124.566 39.0398L124.804 39.8239C124.628 39.8977 124.398 39.9716 124.114 40.0455C123.833 40.1193 123.531 40.1804 123.21 40.2287C122.892 40.277 122.588 40.3011 122.298 40.3011ZM121.804 36.9091C122.185 36.9091 122.493 36.8324 122.729 36.679C122.965 36.5256 123.137 36.294 123.244 35.9844C123.352 35.6747 123.406 35.2841 123.406 34.8125C123.406 34.3352 123.347 33.9631 123.227 33.696C123.108 33.429 122.932 33.2415 122.699 33.1335C122.466 33.0256 122.179 32.9716 121.838 32.9716C121.514 32.9716 121.237 33.0568 121.007 33.2273C120.78 33.3949 120.605 33.6193 120.483 33.9006C120.364 34.179 120.304 34.483 120.304 34.8125C120.304 35.1761 120.352 35.5185 120.449 35.8395C120.546 36.1577 120.703 36.4162 120.922 36.6151C121.141 36.8111 121.435 36.9091 121.804 36.9091ZM153.948 29.36C154.255 29.36 154.475 29.4267 154.608 29.56C154.755 29.6933 154.828 29.8667 154.828 30.08C154.828 30.4267 154.721 30.7333 154.508 31C154.308 31.2667 153.988 31.4067 153.548 31.42C152.495 31.4333 151.548 31.3533 150.708 31.18C149.775 33.1667 148.648 34.82 147.328 36.14C146.021 37.4467 144.728 38.1 143.448 38.1C142.275 38.1 141.395 37.48 140.808 36.24C140.221 34.9867 139.888 33.3133 139.808 31.22C139.008 33.54 138.101 35.2667 137.088 36.4C136.088 37.5333 135.021 38.1 133.888 38.1C132.608 38.1 131.641 37.3067 130.988 35.72C130.335 34.12 130.008 31.9733 130.008 29.28C130.008 27.32 130.181 25.1667 130.528 22.82C130.621 22.1533 130.788 21.6933 131.028 21.44C131.281 21.1733 131.675 21.04 132.208 21.04C132.608 21.04 132.915 21.1267 133.128 21.3C133.355 21.4733 133.468 21.7933 133.468 22.26C133.468 22.3533 133.455 22.5333 133.428 22.8C133.028 25.5333 132.828 27.86 132.828 29.78C132.828 31.5667 132.981 32.9467 133.288 33.92C133.595 34.8933 134.008 35.38 134.528 35.38C134.995 35.38 135.555 34.8933 136.208 33.92C136.875 32.9333 137.535 31.48 138.188 29.56C138.841 27.6267 139.395 25.3267 139.848 22.66C139.955 22.0467 140.148 21.6267 140.428 21.4C140.721 21.16 141.115 21.04 141.608 21.04C142.021 21.04 142.321 21.1333 142.508 21.32C142.708 21.4933 142.808 21.76 142.808 22.12C142.808 22.3333 142.795 22.5 142.768 22.62C142.395 24.7933 142.208 26.9667 142.208 29.14C142.208 30.62 142.255 31.8 142.348 32.68C142.455 33.56 142.648 34.2333 142.928 34.7C143.221 35.1533 143.641 35.38 144.188 35.38C144.828 35.38 145.541 34.9 146.328 33.94C147.115 32.9667 147.835 31.76 148.488 30.32C147.675 29.8133 147.061 29.16 146.648 28.36C146.235 27.5467 146.028 26.6133 146.028 25.56C146.028 24.5067 146.188 23.62 146.508 22.9C146.841 22.1667 147.288 21.62 147.848 21.26C148.421 20.9 149.055 20.72 149.748 20.72C150.601 20.72 151.275 21.0267 151.768 21.64C152.275 22.2533 152.528 23.0933 152.528 24.16C152.528 25.6667 152.201 27.34 151.548 29.18C152.228 29.3 153.028 29.36 153.948 29.36ZM148.048 25.42C148.048 26.7267 148.468 27.6933 149.308 28.32C149.828 26.8267 150.088 25.5933 150.088 24.62C150.088 24.06 150.015 23.6533 149.868 23.4C149.721 23.1333 149.521 23 149.268 23C148.908 23 148.615 23.2133 148.388 23.64C148.161 24.0533 148.048 24.6467 148.048 25.42ZM154.543 38.1C153.716 38.1 153.056 37.8 152.563 37.2C152.07 36.6 151.823 35.8133 151.823 34.84C151.823 33.7733 152.07 32.7667 152.563 31.82C153.056 30.86 153.71 30.0933 154.523 29.52C155.35 28.9333 156.223 28.64 157.143 28.64C157.436 28.64 157.63 28.7 157.723 28.82C157.83 28.9267 157.916 29.1267 157.983 29.42C158.263 29.3667 158.556 29.34 158.863 29.34C159.516 29.34 159.843 29.5733 159.843 30.04C159.843 30.32 159.743 30.9867 159.543 32.04C159.236 33.5733 159.083 34.64 159.083 35.24C159.083 35.44 159.13 35.6 159.223 35.72C159.33 35.84 159.463 35.9 159.623 35.9C159.876 35.9 160.183 35.74 160.543 35.42C160.903 35.0867 161.39 34.5533 162.003 33.82C162.163 33.6333 162.343 33.54 162.543 33.54C162.716 33.54 162.85 33.62 162.943 33.78C163.05 33.94 163.103 34.16 163.103 34.44C163.103 34.9733 162.976 35.3867 162.723 35.68C162.176 36.36 161.596 36.9333 160.983 37.4C160.37 37.8667 159.776 38.1 159.203 38.1C158.763 38.1 158.356 37.9533 157.983 37.66C157.623 37.3533 157.35 36.94 157.163 36.42C156.47 37.54 155.596 38.1 154.543 38.1ZM155.263 36.08C155.556 36.08 155.836 35.9067 156.103 35.56C156.37 35.2133 156.563 34.7533 156.683 34.18L157.423 30.5C156.863 30.5133 156.343 30.7267 155.863 31.14C155.396 31.54 155.023 32.0733 154.743 32.74C154.463 33.4067 154.323 34.1133 154.323 34.86C154.323 35.2733 154.403 35.58 154.563 35.78C154.736 35.98 154.97 36.08 155.263 36.08ZM162.898 38.1C162.391 38.1 162.031 37.8333 161.818 37.3C161.618 36.7667 161.518 35.9133 161.518 34.74C161.518 33.0067 161.764 31.36 162.258 29.8C162.378 29.4133 162.571 29.1333 162.838 28.96C163.118 28.7733 163.504 28.68 163.998 28.68C164.264 28.68 164.451 28.7133 164.558 28.78C164.664 28.8467 164.718 28.9733 164.718 29.16C164.718 29.3733 164.618 29.8533 164.418 30.6C164.284 31.1333 164.178 31.6 164.098 32C164.018 32.4 163.951 32.8933 163.898 33.48C164.338 32.3333 164.831 31.4 165.378 30.68C165.924 29.96 166.458 29.4467 166.978 29.14C167.511 28.8333 167.998 28.68 168.438 28.68C169.304 28.68 169.738 29.1133 169.738 29.98C169.738 30.1533 169.678 30.5733 169.558 31.24C169.451 31.7733 169.398 32.1067 169.398 32.24C169.398 32.7067 169.564 32.94 169.898 32.94C170.271 32.94 170.751 32.6467 171.338 32.06C171.511 31.8867 171.691 31.8 171.878 31.8C172.051 31.8 172.184 31.88 172.278 32.04C172.384 32.1867 172.438 32.3867 172.438 32.64C172.438 33.1333 172.304 33.52 172.038 33.8C171.664 34.1867 171.224 34.52 170.718 34.8C170.224 35.0667 169.698 35.2 169.138 35.2C168.431 35.2 167.891 35.02 167.518 34.66C167.158 34.3 166.978 33.8133 166.978 33.2C166.978 33 166.998 32.8 167.038 32.6C167.064 32.3333 167.078 32.1533 167.078 32.06C167.078 31.8467 167.004 31.74 166.858 31.74C166.658 31.74 166.391 31.9667 166.058 32.42C165.738 32.86 165.418 33.4467 165.098 34.18C164.778 34.9133 164.518 35.6867 164.318 36.5C164.171 37.1267 163.998 37.5533 163.798 37.78C163.611 37.9933 163.311 38.1 162.898 38.1ZM173.959 38.1C173.172 38.1 172.499 37.9067 171.939 37.52C171.392 37.12 170.979 36.6 170.699 35.96C170.419 35.32 170.279 34.6333 170.279 33.9C170.279 32.8867 170.466 31.9867 170.839 31.2C171.226 30.4 171.746 29.78 172.399 29.34C173.052 28.8867 173.786 28.66 174.599 28.66C175.386 28.66 176.059 28.86 176.619 29.26C177.179 29.6467 177.599 30.16 177.879 30.8C178.159 31.44 178.299 32.1267 178.299 32.86C178.299 33.8733 178.106 34.78 177.719 35.58C177.332 36.3667 176.806 36.9867 176.139 37.44C175.486 37.88 174.759 38.1 173.959 38.1ZM174.179 35.94C174.632 35.94 175.012 35.6933 175.319 35.2C175.639 34.7067 175.799 33.9867 175.799 33.04C175.799 32.3067 175.666 31.7533 175.399 31.38C175.132 31.0067 174.812 30.82 174.439 30.82C173.959 30.82 173.559 31.0667 173.239 31.56C172.932 32.04 172.779 32.76 172.779 33.72C172.779 34.48 172.912 35.04 173.179 35.4C173.446 35.76 173.779 35.94 174.179 35.94ZM181.296 26.1C181.003 26.1 180.77 26.0333 180.596 25.9C180.423 25.7667 180.336 25.5533 180.336 25.26C180.336 25.14 180.356 25 180.396 24.84C180.543 24.2267 180.65 23.66 180.716 23.14C180.796 22.62 180.836 22.04 180.836 21.4C180.836 20.7333 180.99 20.22 181.296 19.86C181.616 19.5 182.023 19.32 182.516 19.32C182.996 19.32 183.356 19.4533 183.596 19.72C183.85 19.9733 183.976 20.32 183.976 20.76C183.976 21.2267 183.836 21.8467 183.556 22.62C183.276 23.3933 182.936 24.1467 182.536 24.88C182.27 25.3733 182.056 25.7 181.896 25.86C181.75 26.02 181.55 26.1 181.296 26.1ZM186.752 38.1C185.965 38.1 185.292 37.9067 184.732 37.52C184.185 37.12 183.772 36.6 183.492 35.96C183.212 35.32 183.072 34.6333 183.072 33.9C183.072 32.8867 183.259 31.9867 183.632 31.2C184.019 30.4 184.539 29.78 185.192 29.34C185.845 28.8867 186.579 28.66 187.392 28.66C188.179 28.66 188.852 28.86 189.412 29.26C189.972 29.6467 190.392 30.16 190.672 30.8C190.952 31.44 191.092 32.1267 191.092 32.86C191.092 33.8733 190.899 34.78 190.512 35.58C190.125 36.3667 189.599 36.9867 188.932 37.44C188.279 37.88 187.552 38.1 186.752 38.1ZM186.972 35.94C187.425 35.94 187.805 35.6933 188.112 35.2C188.432 34.7067 188.592 33.9867 188.592 33.04C188.592 32.3067 188.459 31.7533 188.192 31.38C187.925 31.0067 187.605 30.82 187.232 30.82C186.752 30.82 186.352 31.0667 186.032 31.56C185.725 32.04 185.572 32.76 185.572 33.72C185.572 34.48 185.705 35.04 185.972 35.4C186.239 35.76 186.572 35.94 186.972 35.94Z" fill="black"/>
</g>
<defs>
<filter id="filter0_bdd_4_3" x="14.02" y="-3.66" width="197.072" height="64.27" filterUnits="userSpaceOnUse" color-interpolation-filters="sRGB">
<feFlood flood-opacity="0" result="BackgroundImageFix"/>
<feGaussianBlur in="BackgroundImageFix" stdDeviation="10"/>
<feComposite in2="SourceAlpha" operator="in" result="effect1_backgroundBlur_4_3"/>
<feColorMatrix in="SourceAlpha" type="matrix" values="0 0 0 0 0 0 0 0 0 0 0 0 0 0 0 0 0 0 127 0" result="hardAlpha"/>
<feOffset dy="4"/>
<feGaussianBlur stdDeviation="2"/>
<feComposite in2="hardAlpha" operator="out"/>
<feColorMatrix type="matrix" values="0 0 0 0 0 0 0 0 0 0 0 0 0 0 0 0 0 0 0.25 0"/>
<feBlend mode="normal" in2="effect1_backgroundBlur_4_3" result="effect2_dropShadow_4_3"/>
<feColorMatrix in="SourceAlpha" type="matrix" values="0 0 0 0 0 0 0 0 0 0 0 0 0 0 0 0 0 0 127 0" result="hardAlpha"/>
<feOffset dy="4"/>
<feGaussianBlur stdDeviation="2"/>
<feComposite in2="hardAlpha" operator="out"/>
<feColorMatrix type="matrix" values="0 0 0 0 0 0 0 0 0 0 0 0 0 0 0 0 0 0 0.25 0"/>
<feBlend mode="normal" in2="effect2_dropShadow_4_3" result="effect3_dropShadow_4_3"/>
<feBlend mode="normal" in="SourceGraphic" in2="effect3_dropShadow_4_3" result="shape"/>
</filter>
<linearGradient id="paint0_linear_4_3" x1="112.5" y1="0" x2="112.5" y2="58" gradientUnits="userSpaceOnUse">
<stop stop-color="white"/>
<stop offset="1" stop-color="#999999"/>
</linearGradient>
<radialGradient id="paint1_angular_4_3" cx="0" cy="0" r="1" gradientUnits="userSpaceOnUse" gradientTransform="translate(112.5 29) scale(79.5 18)">
<stop/>
<stop offset="1" stop-color="#F31A1A"/>
</radialGradient>
</defs>
</svg>
